<svg xmlns="http://www.w3.org/2000/svg" width="256" height="256" viewBox="0 0 256 256" role="img" aria-labelledby="peach-achievement-title"><title id="peach-achievement-title">Thành tích — Hồng đào</title><defs><linearGradient id="peach-achievement-primary" x1="0" y1="0" x2=".7" y2="1"><stop stop-color="#FFDDCC"/><stop offset="1" stop-color="#EEAA97"/></linearGradient><linearGradient id="peach-achievement-secondary" x1="0" y1="0" x2=".8" y2="1"><stop stop-color="#EADFFB"/><stop offset="1" stop-color="#BCABD9"/></linearGradient><linearGradient id="peach-achievement-paper" x2=".6" y2="1"><stop stop-color="#FFFFFF"/><stop offset="1" stop-color="#FFF3ED"/></linearGradient><linearGradient id="peach-achievement-gold" x2=".6" y2="1"><stop stop-color="#FFF2BC"/><stop offset="1" stop-color="#EFCF75"/></linearGradient><linearGradient id="peach-achievement-skin" x2=".6" y2="1"><stop stop-color="#FFE6CE"/><stop offset="1" stop-color="#EAC0A6"/></linearGradient><filter id="peach-achievement-shadow" x="-35%" y="-35%" width="170%" height="180%" color-interpolation-filters="sRGB"><feDropShadow dx="0" dy="5" stdDeviation="4" flood-color="#73596A" flood-opacity=".14"/></filter></defs><g filter="url(#peach-achievement-shadow)"><path d="M83 68H48V92Q48 136 97 139 M172 68H208V92Q208 136 159 139" fill="none" stroke="url(#peach-achievement-secondary)" stroke-width="14" stroke-linecap="round" stroke-linejoin="round"/><path d="M78 52H178V106Q178 155 128 157Q78 155 78 106Z" fill="url(#peach-achievement-primary)"/><rect x="118" y="151" width="20" height="39" rx="6" fill="url(#peach-achievement-secondary)"/><rect x="87" y="185" width="83" height="16" rx="8" fill="url(#peach-achievement-secondary)"/><rect x="75" y="200" width="106" height="17" rx="7" fill="url(#peach-achievement-primary)"/><g transform="translate(128 98) scale(1.18)"><path d="M0 -22 7 -7 24 -5 12 7 15 24 0 16 -15 24 -12 7 -24 -5 -7 -7Z" fill="url(#peach-achievement-gold)"/></g><path d="M92 66V94" fill="none" stroke="#FFFFFF" stroke-width="6" stroke-linecap="round" stroke-linejoin="round"/></g><g transform="translate(207 42) scale(0.43)"><path d="M0 -22 7 -7 24 -5 12 7 15 24 0 16 -15 24 -12 7 -24 -5 -7 -7Z" fill="url(#peach-achievement-gold)"/></g><g transform="translate(42 167) scale(0.37)"><path d="M0 -22 7 -7 24 -5 12 7 15 24 0 16 -15 24 -12 7 -24 -5 -7 -7Z" fill="url(#peach-achievement-gold)"/></g></svg>