<svg xmlns="http://www.w3.org/2000/svg" width="256" height="256" viewBox="0 0 256 256" role="img" aria-labelledby="peach-upload-homework-title"><title id="peach-upload-homework-title">Gửi bài — Hồng đào</title><defs><linearGradient id="peach-upload-homework-primary" x1="0" y1="0" x2=".7" y2="1"><stop stop-color="#FFDDCC"/><stop offset="1" stop-color="#EEAA97"/></linearGradient><linearGradient id="peach-upload-homework-secondary" x1="0" y1="0" x2=".8" y2="1"><stop stop-color="#EADFFB"/><stop offset="1" stop-color="#BCABD9"/></linearGradient><linearGradient id="peach-upload-homework-paper" x2=".6" y2="1"><stop stop-color="#FFFFFF"/><stop offset="1" stop-color="#FFF3ED"/></linearGradient><linearGradient id="peach-upload-homework-gold" x2=".6" y2="1"><stop stop-color="#FFF2BC"/><stop offset="1" stop-color="#EFCF75"/></linearGradient><linearGradient id="peach-upload-homework-skin" x2=".6" y2="1"><stop stop-color="#FFE6CE"/><stop offset="1" stop-color="#EAC0A6"/></linearGradient><filter id="peach-upload-homework-shadow" x="-35%" y="-35%" width="170%" height="180%" color-interpolation-filters="sRGB"><feDropShadow dx="0" dy="5" stdDeviation="4" flood-color="#73596A" flood-opacity=".14"/></filter></defs><g transform="rotate(6 128 128)" filter="url(#peach-upload-homework-shadow)"><rect x="74" y="36" width="111" height="143" rx="15" fill="url(#peach-upload-homework-paper)" stroke="#B77878" stroke-width="2"/><path d="M96 72H163 M96 93H150" fill="none" stroke="url(#peach-upload-homework-secondary)" stroke-width="7" stroke-linecap="round" stroke-linejoin="round"/></g><g filter="url(#peach-upload-homework-shadow)"><path d="M49 147H84L98 164H156L171 147H207L219 184V209H36V184Z" fill="url(#peach-upload-homework-primary)"/><path d="M36 184H98L108 194H149L159 184H219V209H36Z" fill="url(#peach-upload-homework-secondary)"/><circle cx="128" cy="106" r="30" fill="url(#peach-upload-homework-gold)"/><g transform="translate(128 106) rotate(0) scale(0.75)"><path d="M0 25V-20 M-15 -5 0 -20 15 -5" fill="none" stroke="#73596A" stroke-width="8" stroke-linecap="round" stroke-linejoin="round"/></g></g></svg>