<svg xmlns="http://www.w3.org/2000/svg" width="256" height="256" viewBox="0 0 256 256"><circle cx="128" cy="128" r="110" fill="#EDF7F0"/><path d="M41 227Q44 155 102 151H155Q211 157 215 227Z" fill="#C6EBDD"/><rect x="114" y="136" width="29" height="30" rx="10" fill="#EFC4AB"/><ellipse cx="128" cy="103" rx="45" ry="51" fill="#FFE0C4"/><path d="M81 112Q67 49 107 43Q154 23 176 69L177 110 159 83 147 68Q120 91 96 83L96 110Z" fill="#30766B"/><circle cx="119" cy="108" r="3" fill="#405D59"/><circle cx="137" cy="108" r="3" fill="#405D59"/><path d="M124 118Q128 122 132 118" fill="none" stroke="#405D59" stroke-width="2.5" stroke-linecap="round" stroke-linejoin="round"/><ellipse cx="111" cy="116" rx="6" ry="3" fill="#EAAE9D"/><ellipse cx="145" cy="116" rx="6" ry="3" fill="#EAAE9D"/><path d="M99 156 129 179 157 156 167 171 129 195 89 171Z" fill="#FFFCF7"/><g transform="translate(174 205) scale(0.65)"><path d="M0 -18 5 -5 18 0 5 5 0 18 -5 5 -18 0 -5 -5Z" fill="#E8CA82"/></g></svg>