<svg xmlns="http://www.w3.org/2000/svg" width="256" height="256" viewBox="0 0 256 256" role="img" aria-labelledby="mint-discussion-title"><title id="mint-discussion-title">Thảo luận — Xanh mint</title><defs><linearGradient id="mint-discussion-primary" x1="0" y1="0" x2=".7" y2="1"><stop stop-color="#DBEFFA"/><stop offset="1" stop-color="#91BDD9"/></linearGradient><linearGradient id="mint-discussion-secondary" x1="0" y1="0" x2=".8" y2="1"><stop stop-color="#E2EDD8"/><stop offset="1" stop-color="#ACC7A2"/></linearGradient><linearGradient id="mint-discussion-paper" x2=".6" y2="1"><stop stop-color="#FFFFFF"/><stop offset="1" stop-color="#F0F7FC"/></linearGradient><linearGradient id="mint-discussion-gold" x2=".6" y2="1"><stop stop-color="#FFF2BC"/><stop offset="1" stop-color="#EFCF75"/></linearGradient><linearGradient id="mint-discussion-skin" x2=".6" y2="1"><stop stop-color="#FFE6CE"/><stop offset="1" stop-color="#EAC0A6"/></linearGradient><filter id="mint-discussion-shadow" x="-35%" y="-35%" width="170%" height="180%" color-interpolation-filters="sRGB"><feDropShadow dx="0" dy="5" stdDeviation="4" flood-color="#304B63" flood-opacity=".14"/></filter></defs><g filter="url(#mint-discussion-shadow)"><path d="M123 115H199Q217 115 217 133V170Q217 188 199 188H139L118 205V187Q105 184 105 170V133Q105 115 123 115Z" fill="url(#mint-discussion-secondary)"/><path d="M51 54H147Q165 54 165 72V121Q165 139 147 139H67L46 156V138Q33 135 33 121V72Q33 54 51 54Z" fill="url(#mint-discussion-primary)"/><path d="M69 143H125Q143 143 143 161V180Q143 198 125 198H85L64 215V197Q51 194 51 180V161Q51 143 69 143Z" fill="url(#mint-discussion-paper)"/><circle cx="71" cy="94" r="5" fill="#304B63"/><circle cx="99" cy="94" r="5" fill="#304B63"/><circle cx="127" cy="94" r="5" fill="#304B63"/><circle cx="77" cy="164" r="3.5" fill="#386A8C"/><circle cx="96" cy="164" r="3.5" fill="#386A8C"/><circle cx="115" cy="164" r="3.5" fill="#386A8C"/><path d="M163 144H197 M164 159H185" fill="none" stroke="url(#mint-discussion-paper)" stroke-width="5" stroke-linecap="round" stroke-linejoin="round"/></g></svg>