<svg xmlns="http://www.w3.org/2000/svg" width="256" height="256" viewBox="0 0 256 256" role="img" aria-labelledby="mint-notes-title"><title id="mint-notes-title">Ghi chú — Xanh mint</title><defs><linearGradient id="mint-notes-primary" x1="0" y1="0" x2=".7" y2="1"><stop stop-color="#DBEFFA"/><stop offset="1" stop-color="#91BDD9"/></linearGradient><linearGradient id="mint-notes-secondary" x1="0" y1="0" x2=".8" y2="1"><stop stop-color="#E2EDD8"/><stop offset="1" stop-color="#ACC7A2"/></linearGradient><linearGradient id="mint-notes-paper" x2=".6" y2="1"><stop stop-color="#FFFFFF"/><stop offset="1" stop-color="#F0F7FC"/></linearGradient><linearGradient id="mint-notes-gold" x2=".6" y2="1"><stop stop-color="#FFF2BC"/><stop offset="1" stop-color="#EFCF75"/></linearGradient><linearGradient id="mint-notes-skin" x2=".6" y2="1"><stop stop-color="#FFE6CE"/><stop offset="1" stop-color="#EAC0A6"/></linearGradient><filter id="mint-notes-shadow" x="-35%" y="-35%" width="170%" height="180%" color-interpolation-filters="sRGB"><feDropShadow dx="0" dy="5" stdDeviation="4" flood-color="#304B63" flood-opacity=".14"/></filter></defs><g filter="url(#mint-notes-shadow)"><g transform="rotate(-7 128 122)"><rect x="53" y="45" width="151" height="156" rx="15" fill="url(#mint-notes-gold)"/><path d="M53 72H204V177L180 201H53Z" fill="url(#mint-notes-paper)"/><path d="M180 177H204L180 201Z" fill="url(#mint-notes-secondary)"/><rect x="106" y="30" width="44" height="30" rx="7" fill="url(#mint-notes-primary)"/><path d="M77 103H166 M77 128H153 M77 153H134" fill="none" stroke="url(#mint-notes-secondary)" stroke-width="7" stroke-linecap="round" stroke-linejoin="round"/></g><g transform="translate(187 156) rotate(34)"><rect x="-10" y="-53" width="20" height="100" rx="6" fill="url(#mint-notes-gold)"/><rect x="-10" y="-53" width="20" height="16" rx="5" fill="url(#mint-notes-secondary)"/><path d="M-10 45 0 66 10 45Z" fill="url(#mint-notes-paper)"/><path d="M-4 58 0 66 4 58Z" fill="#304B63"/><path d="M-4 -31V35" fill="none" stroke="#FFF8CF" stroke-width="3" stroke-linecap="round" stroke-linejoin="round"/></g></g></svg>