<svg xmlns="http://www.w3.org/2000/svg" width="256" height="256" viewBox="0 0 256 256" role="img" aria-labelledby="peach-classroom-title"><title id="peach-classroom-title">Lớp học — Hồng đào</title><defs><linearGradient id="peach-classroom-primary" x1="0" y1="0" x2=".7" y2="1"><stop stop-color="#EDE5FB"/><stop offset="1" stop-color="#B8A3DC"/></linearGradient><linearGradient id="peach-classroom-secondary" x1="0" y1="0" x2=".8" y2="1"><stop stop-color="#F8E6DA"/><stop offset="1" stop-color="#DDBDA8"/></linearGradient><linearGradient id="peach-classroom-paper" x2=".6" y2="1"><stop stop-color="#FFFFFF"/><stop offset="1" stop-color="#F6F2FB"/></linearGradient><linearGradient id="peach-classroom-gold" x2=".6" y2="1"><stop stop-color="#FFF2BC"/><stop offset="1" stop-color="#EFCF75"/></linearGradient><linearGradient id="peach-classroom-skin" x2=".6" y2="1"><stop stop-color="#FFE6CE"/><stop offset="1" stop-color="#EAC0A6"/></linearGradient><filter id="peach-classroom-shadow" x="-35%" y="-35%" width="170%" height="180%" color-interpolation-filters="sRGB"><feDropShadow dx="0" dy="5" stdDeviation="4" flood-color="#4A425F" flood-opacity=".14"/></filter></defs><g filter="url(#peach-classroom-shadow)"><rect x="50" y="47" width="150" height="166" rx="21" fill="url(#peach-classroom-secondary)"/><rect x="62" y="60" width="126" height="153" rx="14" fill="url(#peach-classroom-primary)"/><rect x="77" y="77" width="96" height="75" rx="10" fill="url(#peach-classroom-paper)"/><path d="M91 111 125 97 159 111 125 125Z" fill="#4A425F"/><path d="M104 119V133Q125 145 146 133V119" fill="url(#peach-classroom-secondary)"/><path d="M159 113V133" fill="none" stroke="#4A425F" stroke-width="3" stroke-linecap="round" stroke-linejoin="round"/><circle cx="170" cy="168" r="6" fill="url(#peach-classroom-gold)"/><rect x="37" y="210" width="176" height="11" rx="5" fill="url(#peach-classroom-paper)"/></g><g transform="translate(205 58) scale(0.46)"><path d="M0 -22 7 -7 24 -5 12 7 15 24 0 16 -15 24 -12 7 -24 -5 -7 -7Z" fill="url(#peach-classroom-gold)"/></g></svg>