<svg xmlns="http://www.w3.org/2000/svg" width="256" height="256" viewBox="0 0 256 256" role="img" aria-labelledby="peach-homework-title"><title id="peach-homework-title">Bài tập — Hồng đào</title><defs><linearGradient id="peach-homework-primary" x1="0" y1="0" x2=".7" y2="1"><stop stop-color="#EDE5FB"/><stop offset="1" stop-color="#B8A3DC"/></linearGradient><linearGradient id="peach-homework-secondary" x1="0" y1="0" x2=".8" y2="1"><stop stop-color="#F8E6DA"/><stop offset="1" stop-color="#DDBDA8"/></linearGradient><linearGradient id="peach-homework-paper" x2=".6" y2="1"><stop stop-color="#FFFFFF"/><stop offset="1" stop-color="#F6F2FB"/></linearGradient><linearGradient id="peach-homework-gold" x2=".6" y2="1"><stop stop-color="#FFF2BC"/><stop offset="1" stop-color="#EFCF75"/></linearGradient><linearGradient id="peach-homework-skin" x2=".6" y2="1"><stop stop-color="#FFE6CE"/><stop offset="1" stop-color="#EAC0A6"/></linearGradient><filter id="peach-homework-shadow" x="-35%" y="-35%" width="170%" height="180%" color-interpolation-filters="sRGB"><feDropShadow dx="0" dy="5" stdDeviation="4" flood-color="#4A425F" flood-opacity=".14"/></filter></defs><g filter="url(#peach-homework-shadow)"><g transform="rotate(-6 123 126)"><rect x="57" y="45" width="136" height="167" rx="19" fill="url(#peach-homework-secondary)"/><rect x="68" y="41" width="121" height="161" rx="15" fill="url(#peach-homework-primary)"/><rect x="87" y="66" width="82" height="79" rx="11" fill="url(#peach-homework-paper)"/><path d="M105 88H150 M105 105H139" fill="none" stroke="#6C5C94" stroke-width="5" stroke-linecap="round" stroke-linejoin="round"/><g transform="translate(128 132) scale(0.43)"><path d="M0 -22 7 -7 24 -5 12 7 15 24 0 16 -15 24 -12 7 -24 -5 -7 -7Z" fill="url(#peach-homework-gold)"/></g><path d="M67 68H79 M67 95H79 M67 122H79 M67 149H79 M67 176H79" fill="none" stroke="#4A425F" stroke-width="5" stroke-linecap="round" stroke-linejoin="round"/></g><g transform="translate(195 143) rotate(25)"><rect x="-10" y="-53" width="20" height="100" rx="6" fill="url(#peach-homework-gold)"/><rect x="-10" y="-53" width="20" height="16" rx="5" fill="url(#peach-homework-secondary)"/><path d="M-10 45 0 66 10 45Z" fill="url(#peach-homework-paper)"/><path d="M-4 58 0 66 4 58Z" fill="#4A425F"/><path d="M-4 -31V35" fill="none" stroke="#FFF8CF" stroke-width="3" stroke-linecap="round" stroke-linejoin="round"/></g></g></svg>